<svg xmlns="http://www.w3.org/2000/svg" xmlns:xlink="http://www.w3.org/1999/xlink" viewBox="0 0 131.67 92.54"><defs><style>.cls-1{mask:url(#mask);filter:url(#luminosity-noclip-2);}.cls-10,.cls-2{mix-blend-mode:multiply;}.cls-2{fill:url(#linear-gradient);}.cls-3{isolation:isolate;}.cls-4{fill:#333535;}.cls-5{fill:#4ba3a5;}.cls-6{fill:#367377;}.cls-7{fill:#194747;opacity:0.6;}.cls-8{fill:#fff;opacity:0.54;mix-blend-mode:overlay;}.cls-9{mask:url(#mask-2);}.cls-10{fill:url(#linear-gradient-2);}.cls-11{filter:url(#luminosity-noclip);}</style><filter id="luminosity-noclip" x="61.35" y="-9176.63" width="5.35" height="32766" filterUnits="userSpaceOnUse" color-interpolation-filters="sRGB"><feFlood flood-color="#fff" result="bg"/><feBlend in="SourceGraphic" in2="bg"/></filter><mask id="mask" x="61.35" y="-9176.63" width="5.35" height="32766" maskUnits="userSpaceOnUse"><g class="cls-11"/></mask><linearGradient id="linear-gradient" x1="-406.18" y1="309.32" x2="-405.57" y2="314.37" gradientTransform="translate(569.18 -57.35) rotate(28.42)" gradientUnits="userSpaceOnUse"><stop offset="0" stop-color="#fff"/><stop offset="0.11" stop-color="#dadada"/><stop offset="0.36" stop-color="#8e8e8e"/><stop offset="0.58" stop-color="#515151"/><stop offset="0.77" stop-color="#252525"/><stop offset="0.91" stop-color="#0a0a0a"/><stop offset="1"/></linearGradient><filter id="luminosity-noclip-2" x="61.35" y="21.77" width="5.35" height="2.66" filterUnits="userSpaceOnUse" color-interpolation-filters="sRGB"><feFlood flood-color="#fff" result="bg"/><feBlend in="SourceGraphic" in2="bg"/></filter><mask id="mask-2" x="61.35" y="21.77" width="5.35" height="2.66" maskUnits="userSpaceOnUse"><g class="cls-1"><path class="cls-2" d="M61.65,23.61a6.22,6.22,0,0,1,4.39.82l.66-1.75-4.22-.91c-.08.13-.55.94-1.13,1.91Z"/></g></mask><linearGradient id="linear-gradient-2" x1="-406.18" y1="309.32" x2="-405.57" y2="314.37" gradientTransform="translate(569.18 -57.35) rotate(28.42)" gradientUnits="userSpaceOnUse"><stop offset="0" stop-color="#2b3c90"/><stop offset="0.34" stop-color="#3676ba"/><stop offset="0.64" stop-color="#3fa2d9"/><stop offset="0.87" stop-color="#44bded"/><stop offset="1" stop-color="#46c7f4"/></linearGradient></defs><g class="cls-3"><g id="Layer_2" data-name="Layer 2"><g id="Layer_1-2" data-name="Layer 1"><path class="cls-4" d="M2.82,59.83A2.8,2.8,0,0,1,0,57.05a2.83,2.83,0,0,1,2.82-2.82A2.8,2.8,0,0,1,5.6,57.05,2.77,2.77,0,0,1,2.82,59.83ZM.4,61.72H5.23V77.6H.4Z"/><path class="cls-4" d="M28.11,69.71V77.6h-4.8V69.71c0-2.54-.87-3.87-3.72-3.87A3.68,3.68,0,0,0,16,69.62v8H11.11V61.66h4.8v1.27a6.23,6.23,0,0,1,4.27-1.79C26.71,61.14,28.11,66,28.11,69.71Z"/><path class="cls-4" d="M45.78,55.75v3s-4.15-.77-4.15,1.61v1.24h3.71v3.78H41.63V77.6H36.8V65.41H34V61.63H36.8V60.39C36.8,55.72,40.67,54.08,45.78,55.75Z"/><path class="cls-4" d="M54.71,59.84a2.81,2.81,0,1,1,2.78-2.79A2.77,2.77,0,0,1,54.71,59.84Zm-2.42,1.88h4.83V77.6H52.29Z"/><path class="cls-4" d="M80,69.71V77.6H75.2V69.71c0-2.54-.87-3.87-3.72-3.87a3.68,3.68,0,0,0-3.62,3.78v8H63V61.66h4.8v1.27a6.23,6.23,0,0,1,4.27-1.79C78.6,61.14,80,66,80,69.71Z"/><path class="cls-4" d="M89,59.84a2.81,2.81,0,1,1,2.79-2.79A2.8,2.8,0,0,1,89,59.84Zm-2.41,1.88h4.83V77.6H86.56Z"/><path class="cls-4" d="M104.88,65.31v5.14c0,3.13,1.27,3.1,3,3.13v4.3c-6,1.05-8-2-8-5.85V65.31H97.54V61.66H99.9V55.72h5v5.94h4.33v3.65Z"/><path class="cls-4" d="M130.6,74.54c-1.76,2-3.9,3.59-7,3.59a8.46,8.46,0,0,1-8.45-7.58,8.63,8.63,0,0,1,8.48-9.45c5.29,0,8.54,5.21,7.71,10.19H119.52a4.38,4.38,0,0,0,4.12,2.78,4.69,4.69,0,0,0,3.5-1.67Zm-11.08-6.32h7.89c0-1.67-1.91-3.06-3.74-3.06C121.41,65.16,119.52,66.65,119.52,68.22Z"/><path class="cls-5" d="M59.6,85v.23a2.46,2.46,0,0,1,0,.26h-6a2.91,2.91,0,0,0,.21,1,2.64,2.64,0,0,0,.56.83,2.71,2.71,0,0,0,.84.57,2.53,2.53,0,0,0,1,.21,2.62,2.62,0,0,0,1.42-.38,3,3,0,0,0,.91-.88l.79.62A3.75,3.75,0,0,1,56.22,89a3.87,3.87,0,0,1-1.49-.28,3.47,3.47,0,0,1-1.18-.8,3.73,3.73,0,0,1-.79-1.21,4.24,4.24,0,0,1,0-3,3.53,3.53,0,0,1,.77-1.21,3.52,3.52,0,0,1,2.6-1.08,3.68,3.68,0,0,1,1.5.28,3,3,0,0,1,1.09.78,3.2,3.2,0,0,1,.65,1.14A4.18,4.18,0,0,1,59.6,85Zm-1.07-.34a2.61,2.61,0,0,0-.66-1.7,2.22,2.22,0,0,0-1.74-.67,2.4,2.4,0,0,0-1,.19,2.55,2.55,0,0,0-.79.53,2.6,2.6,0,0,0-.55.76,2.49,2.49,0,0,0-.23.89Z"/><path class="cls-5" d="M69,81.58c0,.2,0,.42,0,.65s0,.44,0,.59h0a2.44,2.44,0,0,1,1-1,2.94,2.94,0,0,1,1.47-.39,2.53,2.53,0,0,1,2.06.82,3.24,3.24,0,0,1,.69,2.16v4.45h-1v-4a5.52,5.52,0,0,0-.09-1,2.4,2.4,0,0,0-.32-.8,1.46,1.46,0,0,0-.61-.51,2.24,2.24,0,0,0-1.76,0,1.94,1.94,0,0,0-.7.52,2.42,2.42,0,0,0-.5.88,4,4,0,0,0-.19,1.26v3.72h-1V83.18c0-.2,0-.45,0-.76s0-.59-.05-.84Z"/><path class="cls-5" d="M89.83,85v.23a2.35,2.35,0,0,1,0,.26h-6a2.71,2.71,0,0,0,.22,1,2.48,2.48,0,0,0,.56.83,2.59,2.59,0,0,0,1.87.78,2.62,2.62,0,0,0,1.42-.38,3,3,0,0,0,.9-.88l.79.62a3.91,3.91,0,0,1-1.43,1.18,4,4,0,0,1-1.68.35A3.8,3.8,0,0,1,85,88.73a3.52,3.52,0,0,1-1.19-.8A3.71,3.71,0,0,1,83,86.72a3.94,3.94,0,0,1-.29-1.51A4.15,4.15,0,0,1,83,83.69a3.71,3.71,0,0,1,.78-1.21,3.49,3.49,0,0,1,1.16-.8,3.59,3.59,0,0,1,1.44-.28,3.75,3.75,0,0,1,1.5.28,3.06,3.06,0,0,1,1.08.78,3.22,3.22,0,0,1,.66,1.14A4.18,4.18,0,0,1,89.83,85Zm-1.06-.34a2.67,2.67,0,0,0-.66-1.7,2.23,2.23,0,0,0-1.74-.67,2.45,2.45,0,0,0-1,.19,2.67,2.67,0,0,0-.79.53,2.4,2.4,0,0,0-.54.76,2.49,2.49,0,0,0-.23.89Z"/><path class="cls-5" d="M98.27,82.42c0-.31,0-.59,0-.84h1c0,.2,0,.42,0,.65s0,.44,0,.59h0a2.62,2.62,0,0,1,.93-1,2.59,2.59,0,0,1,1.4-.39H102a1.91,1.91,0,0,1,.33.06l-.14,1-.31-.06a3,3,0,0,0-.43,0,2.15,2.15,0,0,0-.8.15A1.82,1.82,0,0,0,100,83a2.54,2.54,0,0,0-.46.85,3.78,3.78,0,0,0-.18,1.24v3.71h-1V83.18C98.29,83,98.28,82.73,98.27,82.42Z"/><path class="cls-5" d="M110.16,90.28a3.5,3.5,0,0,0,1.19,1,3.39,3.39,0,0,0,1.58.39,3.43,3.43,0,0,0,1.32-.23,2.24,2.24,0,0,0,.87-.61,2.43,2.43,0,0,0,.49-.91,3.9,3.9,0,0,0,.16-1.1V87.4h0a2.71,2.71,0,0,1-1.18,1.06,3.64,3.64,0,0,1-1.56.37,4,4,0,0,1-1.54-.28,3.41,3.41,0,0,1-1.17-.77,3.25,3.25,0,0,1-.76-1.17,4.08,4.08,0,0,1,0-2.92,3.6,3.6,0,0,1,1.93-2A4,4,0,0,1,113,81.4a3.43,3.43,0,0,1,1.55.37,2.75,2.75,0,0,1,1.19,1.07h0V81.58h1v7.19a5.71,5.71,0,0,1-.16,1.25,3.12,3.12,0,0,1-.61,1.22,3.27,3.27,0,0,1-1.2.93,4.42,4.42,0,0,1-2,.37,5,5,0,0,1-1.92-.38,4.81,4.81,0,0,1-1.57-1.07Zm.2-5.17a3,3,0,0,0,.19,1.09,2.57,2.57,0,0,0,.53.89,2.47,2.47,0,0,0,.86.62,2.86,2.86,0,0,0,1.16.22,3.14,3.14,0,0,0,1.12-.2,2.62,2.62,0,0,0,.88-.57,2.69,2.69,0,0,0,.58-.89,3.07,3.07,0,0,0,.21-1.16,2.81,2.81,0,0,0-.21-1.08,2.84,2.84,0,0,0-.58-.9,2.92,2.92,0,0,0-.88-.62,2.77,2.77,0,0,0-1.12-.23,2.86,2.86,0,0,0-1.16.23,2.6,2.6,0,0,0-.86.62,2.71,2.71,0,0,0-.53.9A3,3,0,0,0,110.36,85.11Z"/><path class="cls-5" d="M128.24,87.7h0l2.25-6.12h1.15l-3.61,9.12a4,4,0,0,1-.83,1.34,2,2,0,0,1-1.45.5,4.91,4.91,0,0,1-.94-.09l.11-1a2.44,2.44,0,0,0,.77.13,1.12,1.12,0,0,0,.85-.34,2.73,2.73,0,0,0,.54-1l.59-1.52-3.09-7.23h1.17Z"/><path class="cls-6" d="M97.94,13.24A10.57,10.57,0,0,0,96.11,6a14.51,14.51,0,0,0-5-4.32A14.66,14.66,0,0,0,84.89,0a14.21,14.21,0,0,0-6.16,1.14,17.9,17.9,0,0,0-5,3.22A28.57,28.57,0,0,0,69.9,8.56a42.5,42.5,0,0,0-3.58,5.54c-2.74-1-5.52-2.06-8.43-3A44.86,44.86,0,0,0,45.81,8.41a22.34,22.34,0,0,0-3.46.06,20.59,20.59,0,0,0-3.62.61A24.33,24.33,0,0,0,35,10.37a20.67,20.67,0,0,0-3.59,2.13,18.68,18.68,0,0,0-5.65,6.75,20.11,20.11,0,0,0-2.1,8.6,17.81,17.81,0,0,0,.41,4.42,19.28,19.28,0,0,0,.66,2.17,16.53,16.53,0,0,0,1,2.12,27.42,27.42,0,0,0,2.12,3.14,22.77,22.77,0,0,0,2.68,2.92,19.94,19.94,0,0,0,3.38,2.49A16.94,16.94,0,0,0,38,46.78a16.36,16.36,0,0,0,4.31.53,16.9,16.9,0,0,0,4-.61,19.74,19.74,0,0,0,6.38-3.16,28.64,28.64,0,0,0,4.6-4.27,47.66,47.66,0,0,0,6.36-9.55c.84-1.66,1.61-3.32,2.29-5l.77-2,1.78.42c.93.2,1.86.38,2.81.54a49.17,49.17,0,0,0,5.71.68,38.44,38.44,0,0,0,5.88,0A29.26,29.26,0,0,0,89,23.28a14.36,14.36,0,0,0,5.88-3.43A11,11,0,0,0,97.94,13.24ZM59.32,27a37.21,37.21,0,0,1-6.49,7.52,20,20,0,0,1-3.89,2.58,10.21,10.21,0,0,1-4,1.08c-7-.16-9.2-8-5.79-12.35A10.57,10.57,0,0,1,41,24a11.85,11.85,0,0,1,2.61-1.56,19,19,0,0,1,3.59-1.09,34.19,34.19,0,0,1,8.94-.43,58.9,58.9,0,0,1,6.32.89C62.32,22.05,60.26,25.57,59.32,27ZM90.26,15.73a8.13,8.13,0,0,1-3.56,1.59,29,29,0,0,1-8.69,0,42.8,42.8,0,0,1-7.83-1.78c.22-.34,2.1-3.14,3.16-4.38a18.79,18.79,0,0,1,7.15-5.45,9.17,9.17,0,0,1,3.89-.6,9,9,0,0,1,3.87,1.16C92.84,8.88,92.88,13.47,90.26,15.73Z"/><path class="cls-7" d="M57.28,39.27a47.66,47.66,0,0,0,6.36-9.55c.84-1.66,1.61-3.32,2.29-5l.77-2-4.22-.91c-.16.28-2.22,3.8-3.16,5.2a37.21,37.21,0,0,1-6.49,7.52,20,20,0,0,1-3.89,2.58,10.21,10.21,0,0,1-4,1.08c-7-.16-9.2-8-5.79-12.35A10.57,10.57,0,0,1,41,24a11.85,11.85,0,0,1,2.61-1.56c.3-.13.63-.26,1-.37h0C26.88,26.92,29.89,49.29,46.3,46.7a19.74,19.74,0,0,0,6.38-3.16A28.64,28.64,0,0,0,57.28,39.27Z"/><path class="cls-5" d="M78.73,1.15a17.9,17.9,0,0,0-5,3.22A28.57,28.57,0,0,0,69.9,8.56a42.5,42.5,0,0,0-3.58,5.54l3.86,1.45c.22-.34,2.1-3.14,3.16-4.38a18.79,18.79,0,0,1,7.15-5.45,9.17,9.17,0,0,1,3.89-.6,9,9,0,0,1,3.87,1.16c4.59,2.6,4.63,7.19,2,9.45a8.13,8.13,0,0,1-3.56,1.59,22,22,0,0,1-4.43.32h0c13.82.67,18.18-10.88,8.8-16A14.66,14.66,0,0,0,84.89,0,14.21,14.21,0,0,0,78.73,1.15Z"/><path class="cls-8" d="M31.12,13.08A20.14,20.14,0,0,1,34.72,11a24.4,24.4,0,0,1,3.7-1.3A21.36,21.36,0,0,1,42,9.05,22.32,22.32,0,0,1,45.5,9a45.33,45.33,0,0,1,12.08,2.63c2.91,1,5.69,2,8.43,3.06l3.85,1.45a44,44,0,0,0,7.83,1.78,39.75,39.75,0,0,0,4.27.31h0c6.86.34,11.39-2.34,13.06-5.75C93.14,15.6,88.74,18,82.27,17.65h0A39.38,39.38,0,0,1,78,17.33a42.8,42.8,0,0,1-7.83-1.78L66.32,14.1c-2.74-1-5.52-2.06-8.43-3A44.86,44.86,0,0,0,45.81,8.41a22.34,22.34,0,0,0-3.46.06,20.59,20.59,0,0,0-3.62.61A24.33,24.33,0,0,0,35,10.37a20.67,20.67,0,0,0-3.59,2.13,18.76,18.76,0,0,0-5.39,6.25A19,19,0,0,1,31.12,13.08Z"/><path class="cls-8" d="M82,17.63a39.13,39.13,0,0,1-4-.3,42.8,42.8,0,0,1-7.83-1.78L66.32,14.1c-2.74-1-5.52-2.06-8.43-3A52.51,52.51,0,0,0,49,8.74a149.58,149.58,0,0,1,18.28,6C76,18.3,82,17.63,82,17.63Z"/><g class="cls-9"><path class="cls-10" d="M61.65,23.61a6.22,6.22,0,0,1,4.39.82l.66-1.75-4.22-.91c-.08.13-.55.94-1.13,1.91Z"/></g></g></g></g></svg>